<?xml version="1.0" encoding="UTF-8"?>
<svg width="40px" height="40px" viewBox="0 0 40 40" version="1.1" xmlns="http://www.w3.org/2000/svg" xmlns:xlink="http://www.w3.org/1999/xlink">
    <title>1</title>
    <defs>
        <circle id="path-1" cx="20" cy="20" r="20"></circle>
    </defs>
    <g id="页面-1" stroke="none" stroke-width="1" fill="none" fill-rule="evenodd">
        <g id="系统默认头像" transform="translate(-95.000000, -54.000000)">
            <g id="1" transform="translate(95.000000, 54.000000)">
                <mask id="mask-2" fill="white">
                    <use xlink:href="#path-1"></use>
                </mask>
                <use id="蒙版" fill="#10A0FF" xlink:href="#path-1"></use>
                <g id="cysq" mask="url(#mask-2)">
                    <g transform="translate(5.000000, 5.000000)">
                        <rect id="矩形" x="0" y="0" width="40" height="40"></rect>
                        <g id="编组-10" stroke-width="1" fill-rule="evenodd" transform="translate(0.426667, 0.000000)">
                            <path d="M34.2773957,24.6824312 C33.9808557,23.4727 33.9808557,20.150161 34.2773957,14.7148141 C34.2773957,6.62166635 27.6593357,0 19.5698925,0 C11.4804492,0 4.86238928,6.62166635 4.86238928,14.7148141 C5.15892931,20.150161 5.15892931,23.4727 4.86238928,24.6824312 C4.41757925,26.497028 3.30008752,30.5171197 1.7406629,32.3063859 C-0.482811899,34.4721579 -0.0731032917,35.8187131 0.277911104,36.5210632 C0.628925499,37.2228379 1.79878167,38.2182179 4.37327088,37.1059715 C6.94718461,35.9937248 8.44216069,35.3051915 11.4844773,37.5573179 C13.8086529,39.0984587 16.5885718,40 19.5698925,40 C22.5512131,40 25.331132,39.0984587 27.6553077,37.5573179 C30.6976243,35.3051915 32.1926003,35.9937248 34.7665141,37.1059715 C37.3410032,38.2182179 38.5108595,37.2228379 38.8618739,36.5210632 C39.2128883,35.8187131 39.6225968,34.4721579 37.3991221,32.3063859 C35.8396973,30.5171197 34.7222056,26.497028 34.2773957,24.6824312 Z" id="Fill-1" fill="#40E18F" fill-rule="nonzero"></path>
                            <path d="M27.7061936,13.8426077 C27.7061936,9.51957693 24.2013965,6.01465072 19.878525,6.01465072 C15.5550766,6.01465072 12.0502796,9.51957693 12.0502796,13.8426077 C12.0502796,18.1656385 15.5550766,21.6705647 19.878525,21.6705647 C24.2013965,21.6705647 27.7061936,18.1656385 27.7061936,13.8426077" id="Fill-3" fill="#FFFFFF" fill-rule="nonzero"></path>
                            <path d="M26.8304269,14.8325258 C26.8304269,16.8472093 25.1971627,18.4805338 23.1825535,18.4805338 C21.1679442,18.4805338 19.5346799,16.8472093 19.5346799,14.8325258 C19.5346799,12.8178423 21.1679442,11.1845178 23.1825535,11.1845178 C25.1971627,11.1845178 26.8304269,12.8178423 26.8304269,14.8325258" id="Fill-5" fill="#263244" fill-rule="nonzero"></path>
                        </g>
                    </g>
                </g>
            </g>
        </g>
    </g>
</svg>